<svg width="20" height="20" viewBox="0 0 20 20" fill="none" xmlns="http://www.w3.org/2000/svg">
  <path fill-rule="evenodd" clip-rule="evenodd"
    d="M13.6227 4.66268C12.4357 4.55568 11.2337 4.50068 10.0187 4.50068C8.81555 4.50047 7.61299 4.55453 6.41471 4.66268C6.25926 4.67651 6.11329 4.74339 6.00131 4.85209C5.88933 4.9608 5.81814 5.10471 5.79971 5.25968C5.73871 5.77368 5.68671 6.29168 5.64571 6.81168C5.63933 6.91098 5.61326 7.00802 5.56902 7.09714C5.52478 7.18626 5.46324 7.26569 5.388 7.33079C5.31275 7.3959 5.22531 7.44538 5.13075 7.47636C5.0362 7.50734 4.93642 7.51919 4.83724 7.51123C4.73806 7.50327 4.64145 7.47565 4.55305 7.42999C4.46465 7.38433 4.38621 7.32153 4.32232 7.24525C4.25842 7.16898 4.21035 7.08075 4.18088 6.98571C4.15142 6.89068 4.14116 6.79073 4.15071 6.69168C4.19349 6.15402 4.24683 5.61725 4.31071 5.08168C4.3699 4.58543 4.59781 4.12458 4.95627 3.77632C5.31472 3.42806 5.78195 3.21354 6.27971 3.16868C8.76697 2.94377 11.2694 2.94377 13.7567 3.16868C14.2546 3.21332 14.7221 3.42775 15.0808 3.77602C15.4394 4.1243 15.6675 4.58527 15.7267 5.08168C15.7632 5.38743 15.7964 5.69355 15.826 5.99999H14.3191C14.2943 5.75255 14.2671 5.50578 14.2377 5.25968C14.2193 5.10471 14.1481 4.9608 14.0361 4.85209C13.9241 4.74339 13.7782 4.67651 13.6227 4.66268ZM11 15.4893C9.47065 15.5268 7.93971 15.4766 6.41471 15.3387C6.25926 15.3249 6.11329 15.258 6.00131 15.1493C5.88933 15.0406 5.81814 14.8967 5.79971 14.7417C5.67469 13.6954 5.59129 12.6446 5.54971 11.5917L7.23871 13.2817C7.38022 13.4182 7.56971 13.4937 7.76636 13.4919C7.96301 13.4901 8.15108 13.4112 8.29007 13.2721C8.42906 13.1329 8.50785 12.9448 8.50947 12.7481C8.51108 12.5515 8.43539 12.3621 8.29871 12.2207L5.29971 9.22068C5.15908 9.08023 4.96846 9.00134 4.76971 9.00134C4.57096 9.00134 4.38033 9.08023 4.23971 9.22068L1.23871 12.2207C1.16502 12.2893 1.10592 12.3721 1.06493 12.4641C1.02394 12.5561 1.00189 12.6555 1.00012 12.7562C0.99834 12.8569 1.01686 12.9569 1.05459 13.0503C1.09231 13.1437 1.14845 13.2285 1.21967 13.2997C1.29089 13.3709 1.37572 13.4271 1.46911 13.4648C1.5625 13.5025 1.66253 13.5211 1.76323 13.5193C1.86393 13.5175 1.96325 13.4955 2.05525 13.4545C2.14725 13.4135 2.23005 13.3544 2.29871 13.2807L4.04671 11.5337C4.08871 12.6747 4.17671 13.8037 4.31071 14.9197C4.36994 15.4161 4.598 15.8771 4.95665 16.2253C5.31531 16.5736 5.78277 16.788 6.28071 16.8327C7.85029 16.9745 9.42593 17.0269 11 16.9897V15.4893Z"
    fill="#F3F2EA" />
  <path d="M14.988 17.716V8.11952L16.29 8V17.716H14.988ZM13 9.5V8.324L16.15 8V9.176L13 9.5Z" fill="white" />
</svg>